<?xml version="1.0" encoding="utf-8"?>
<!-- Generator: Adobe Illustrator 24.2.0, SVG Export Plug-In . SVG Version: 6.00 Build 0)  -->
<svg version="1.1" id="Calque_1" xmlns="http://www.w3.org/2000/svg" xmlns:xlink="http://www.w3.org/1999/xlink" x="0px" y="0px"
	 viewBox="0 0 156 197.3" style="enable-background:new 0 0 156 197.3;" xml:space="preserve">
<style type="text/css">
	.st0{fill:none;}
	.st1{fill:#606060;}
	.st2{fill:#FFFFFF;}
	.st3{fill:#D6A32A;}
</style>
<rect x="-6964.3" y="1297.5" class="st0" width="1224.3" height="717"/>
<g>
	<g>
		<rect x="-7735.9" y="100.2" class="st1" width="1.2" height="110.6"/>
	</g>
</g>
<path class="st2" d="M593.8,248.6"/>
<path class="st2" d="M-788.6,330.7"/>
<path class="st2" d="M-3507.4-721.8"/>
<g>
	<g>
		<g>
			<path class="st3" d="M79.6,146L10.1,76.5L79.6,7l69.5,69.5L79.6,146z M19.2,76.5l60.4,60.4L140,76.5L79.6,16.1L19.2,76.5z"/>
		</g>
		<g>
			<path class="st3" d="M79.5,169.5l-69.1-69.1l69.1-69.1l69.1,69.1L79.5,169.5z M19.5,100.4l60,60l60-60l-60-60L19.5,100.4z"/>
		</g>
		<g>
			<path class="st3" d="M79.5,190.7l-66.6-66.6l66.6-66.6l66.6,66.6L79.5,190.7z M22,124.1l57.5,57.5l57.5-57.5L79.5,66.6L22,124.1z
				"/>
		</g>
	</g>
	<path class="st2" d="M741,158.6"/>
</g>
</svg>
