<?xml version="1.0" encoding="utf-8"?>
<!-- Generator: Adobe Illustrator 24.2.0, SVG Export Plug-In . SVG Version: 6.00 Build 0)  -->
<svg version="1.1" id="Calque_1" xmlns="http://www.w3.org/2000/svg" xmlns:xlink="http://www.w3.org/1999/xlink" x="0px" y="0px"
	 viewBox="0 0 969.1 332.6" style="enable-background:new 0 0 969.1 332.6;" xml:space="preserve">
<style type="text/css">
	.st0{fill:none;}
	.st1{fill:#606060;}
	.st2{fill:#FFFFFF;}
	.st3{fill:#D6A32A;}
</style>
<rect x="-6933.1" y="1362.7" class="st0" width="1224.3" height="717"/>
<g>
	<g>
		<rect x="-7704.7" y="165.5" class="st1" width="1.2" height="110.6"/>
	</g>
</g>
<path class="st2" d="M625,313.9"/>
<path class="st2" d="M-757.4,395.9"/>
<path class="st2" d="M-3476.2-656.6"/>
<g>
	<g>
		<path class="st3" d="M913.6,278.7c7.8,0,14.1,6.2,14.2,13.6c0.1,7.7-6.2,13.9-14,14.1c-7.8,0.1-14.3-6.1-14.4-13.7
			C899.4,285,905.8,278.7,913.6,278.7z M926.1,292.5c0-6.6-5.6-12.1-12.4-12.1c-6.9,0-12.5,5.4-12.5,12.1c0,6.8,5.6,12.1,12.3,12.2
			C920.4,304.7,926.1,299.2,926.1,292.5z"/>
		<path class="st3" d="M911.2,299.8c-0.1,0-0.1,0-0.2,0c-0.8,0-1.6,0-2.4,0c0-4.9,0-9.7,0-14.6c0.2,0,0.4,0,0.7,0c1.6,0,3.3,0,4.9,0
			c1,0,2,0.2,3,0.7c1,0.5,1.6,1.3,1.9,2.3c0.3,1.2,0.3,2.3-0.2,3.4c-0.4,0.9-1.1,1.5-2,1.9c-0.1,0-0.2,0.1-0.2,0.1c0,0,0,0,0,0
			c0.1,0.2,0.2,0.4,0.3,0.5c0.7,1.3,1.5,2.6,2.2,3.9c0.3,0.5,0.5,1,0.8,1.5c0,0.1,0.1,0.1,0.1,0.2c-0.4,0-0.7,0-1.1,0
			c-0.5,0-1.1,0-1.6,0c-0.1,0-0.2,0-0.2-0.1c-0.9-1.8-1.9-3.6-2.8-5.4c0-0.1-0.1-0.1-0.2-0.1c-0.9,0-1.8,0-2.7,0c0,0-0.1,0-0.1,0
			C911.2,296.1,911.2,297.9,911.2,299.8z M911.2,292.2c0.1,0,0.1,0,0.1,0c0.7,0,1.4,0,2,0c0.4,0,0.9,0,1.3-0.1
			c0.9-0.2,1.5-0.6,1.8-1.5c0.1-0.4,0.2-0.9,0.1-1.3c-0.1-1-0.7-1.7-1.6-1.9c-0.4-0.1-0.7-0.1-1.1-0.1c-0.8,0-1.7,0-2.5,0
			c-0.1,0-0.1,0-0.2,0C911.2,288.9,911.2,290.5,911.2,292.2z"/>
	</g>
	<g>
		<rect x="299.5" y="79.3" class="st2" width="16.3" height="80"/>
		<polygon class="st2" points="331.9,91.4 359.2,91.4 359.2,159.3 375.5,159.3 375.5,91.4 403,91.4 403,79.3 331.9,79.3 		"/>
		<polygon class="st2" points="491.4,91.4 518.7,91.4 518.7,159.3 535,159.3 535,91.4 562.6,91.4 562.6,79.3 491.4,79.3 		"/>
		<rect x="215.6" y="79.3" class="st2" width="15.1" height="80"/>
		<path class="st2" d="M265.8,117.6c3.6-1.6,6.4-3.7,8.4-6.3c2.2-3,3.4-6.4,3.4-10.1c0-7.2-2.7-12.8-8.1-16.4
			c-5.3-3.6-13.1-5.5-23.1-5.5h-6.1v12.1h6.1c5.1,0,9,0.8,11.3,2.5c2.3,1.6,3.5,4.3,3.5,8.1c0,3.4-1.3,6-3.8,7.8
			c-2.6,1.9-6.3,2.8-10.9,2.8h-6.2v11.1h9.4c9.2,0.2,13.6,4.1,13.6,12.1c0,3.6-1.3,6.5-3.9,8.5c-2.6,2.1-6.3,3.1-11,3.1h-8.2v12h8
			c10,0,17.8-2,23.2-6.1c5.4-4.1,8.2-9.9,8.2-17.5c0-4.6-1.4-8.6-4-11.8C273.3,121,270,118.9,265.8,117.6z"/>
		<path class="st2" d="M460.2,93.6c2.8,2.2,4.2,5.3,4.2,9.3v0.5h16.3v-0.5c0-4.6-1.4-8.9-4.2-12.7c-2.8-3.8-6.7-6.8-11.6-8.8
			c-4.2-1.8-9.1-2.8-14.3-3l-0.5,0v12l0.5,0C454.6,90.6,457.8,91.7,460.2,93.6z"/>
		<path class="st2" d="M425.3,84.5c-5.9,4.2-8.9,9.6-8.9,16.1c0,7.4,4.2,13.5,12.3,18.1v0c2.9,1.6,6.7,3.2,11,4.6l0.7,0.2v-14.4
			l-0.3-0.1c-1.2-0.6-2.3-1.1-3.1-1.7c-2.9-1.9-4.3-4.1-4.3-6.8c0-3.3,1.3-5.8,3.9-7.6c1-0.7,2.1-1.2,3.4-1.7l0.3-0.1V78.8l-0.6,0.1
			C434.2,79.8,429.3,81.7,425.3,84.5z"/>
		<path class="st2" d="M477.7,127.5c-2-3.1-5.1-5.8-9.3-8.2c-4.2-2.3-9.8-4.5-16.7-6.3l-1.7-0.4v13.9l0.4,0.1
			c4.6,1.5,8,2.9,10.1,4.3c2.6,1.8,3.9,4.3,3.9,7.6c0,3-1.3,5.4-3.8,7.3c-2.3,1.6-5.7,2.6-10,2.8l-0.5,0v11.9l0.5,0
			c8.9-0.2,16.1-2.2,21.5-5.9c5.8-4,8.7-9.4,8.7-16.1C480.7,134.2,479.7,130.6,477.7,127.5L477.7,127.5z"/>
		<path class="st2" d="M434.8,145c-3.2-2.3-4.8-5.7-4.8-10v-0.5h-16.4v0.5c0,5,1.5,9.5,4.6,13.3c3,3.8,7.3,6.8,12.7,8.9
			c2.8,1.1,5.8,1.9,8.9,2.5l0.6,0.1v-12.2l-0.4-0.1C438,146.9,436.2,146,434.8,145z"/>
		<path class="st2" d="M722.8,85.4c-5.1-4.1-11.8-6.4-19.7-7l-0.5,0v12.1l0.4,0.1c3.6,0.5,6.6,1.6,8.7,3.4c2.9,2.4,4.7,6.4,5.4,12
			l0.1,0.4h16.3l-0.1-0.6C732.4,97.1,728.8,90.2,722.8,85.4z"/>
		<path class="st2" d="M679.5,82.9c-5.6,3.1-9.9,7.6-12.9,13.3c-3,5.7-4.5,12.4-4.5,19.9v7.4c0.1,7.3,1.7,13.8,4.6,19.4
			c2.9,5.6,7.2,9.9,12.6,12.9c3.9,2.2,8.3,3.6,13,4.2l0.6,0.1v-12.3l-0.4-0.1c-3.7-0.9-6.7-2.9-9-5.9c-3.3-4.4-5-10.8-5-19.2v-7
			c0.1-8.3,1.9-14.6,5.4-18.9c2.2-2.7,5.1-4.6,8.6-5.6l0.4-0.1V78.6l-0.6,0.1C687.7,79.4,683.3,80.8,679.5,82.9z"/>
		<path class="st2" d="M717,133c-0.8,5.5-2.7,9.4-5.6,11.8c-2.1,1.7-4.9,2.7-8.5,3.2l-0.4,0.1v12.1l0.5,0c7.9-0.7,14.5-3,19.6-7
			c6.2-4.8,9.7-11.5,10.6-20.1l0.1-0.6h-16.3L717,133z"/>
		<polygon class="st2" points="591.4,89.1 566.2,161.4 584.1,160.9 601.7,115.8 		"/>
		<polygon class="st2" points="600.3,77.3 619.3,134.4 604.7,134.6 599,148.7 623.4,148.4 628,160.7 648.5,160.7 618.7,77.3 		"/>
		<rect x="750" y="76.3" class="st2" width="16.2" height="83"/>
		<polygon class="st2" points="823.7,75.3 802.9,73.8 773.3,117.8 803.5,159.8 823.8,159.8 791.4,117.8 		"/>
		<path class="st2" d="M875.5,93.6c2.8,2.2,4.2,5.3,4.2,9.3v0.5h16.3v-0.5c0-4.6-1.4-8.9-4.2-12.7c-2.8-3.8-6.7-6.8-11.6-8.8
			c-4.2-1.8-9.1-2.8-14.3-3l-0.5,0v12l0.5,0C869.9,90.6,873.1,91.7,875.5,93.6z"/>
		<path class="st2" d="M840.6,84.5c-5.9,4.2-8.9,9.6-8.9,16.1c0,7.4,4.2,13.5,12.3,18.1v0c2.9,1.6,6.7,3.2,11,4.6l0.7,0.2v-14.4
			l-0.3-0.1c-1.2-0.6-2.3-1.1-3.1-1.7c-2.9-1.9-4.3-4.1-4.3-6.8c0-3.3,1.3-5.8,3.9-7.6c1-0.7,2.1-1.2,3.4-1.7l0.3-0.1V78.8l-0.6,0.1
			C849.5,79.8,844.6,81.7,840.6,84.5z"/>
		<path class="st2" d="M893,127.5L893,127.5c-2-3.1-5.1-5.8-9.3-8.2c-4.2-2.3-9.8-4.5-16.7-6.3l-1.7-0.4v13.9l0.4,0.1
			c4.6,1.5,8,2.9,10.1,4.3c2.6,1.8,3.9,4.3,3.9,7.6c0,3-1.3,5.4-3.8,7.3c-2.3,1.6-5.7,2.6-10,2.8l-0.5,0v11.9l0.5,0
			c8.9-0.2,16.1-2.2,21.5-5.9c5.8-4,8.7-9.4,8.7-16.1C896,134.2,895,130.6,893,127.5z"/>
		<path class="st2" d="M850.1,145c-3.2-2.3-4.8-5.7-4.8-10v-0.5h-16.4v0.5c0,5,1.5,9.5,4.6,13.3c3,3.8,7.3,6.8,12.7,8.9
			c2.8,1.1,5.8,1.9,8.9,2.5l0.6,0.1v-12.2l-0.4-0.1C853.3,146.9,851.5,146,850.1,145z"/>
	</g>
	<g>
		<g>
			<path class="st2" d="M226.7,215.4c4.6,0,7.6,2.5,7.6,6.2c0,2.3-1.2,4.1-3.3,5.1c2.6,1,4.2,3,4.2,5.6c0,4-3.2,6.7-8.1,6.7h-10.6
				v-23.6H226.7z M220.1,218.4v7h6.5c2.7,0,4.3-1.3,4.3-3.5s-1.7-3.5-4.3-3.5H220.1z M231.7,232.1c0-2.3-1.9-3.9-4.8-3.9h-6.8v7.7
				h6.8C229.8,236,231.7,234.4,231.7,232.1z"/>
			<path class="st2" d="M262.7,215.4h3.5v20.4h13.6v3.1h-17.1V215.4z"/>
			<path class="st2" d="M318.2,239.3c-6.9,0-12.2-5.3-12.2-12.1s5.4-12.1,12.2-12.1s12.3,5.3,12.3,12.1S325.1,239.3,318.2,239.3z
				 M318.2,218.3c-4.9,0-8.6,3.8-8.6,8.9c0,5,3.8,8.9,8.6,8.9c4.9,0,8.7-3.9,8.7-8.9C326.9,222.1,323.1,218.3,318.2,218.3z"/>
			<path class="st2" d="M376.3,232.9l2.3,2.4c-2.3,2.5-5.8,4.1-9.4,4.1c-7,0-12.3-5.3-12.3-12.1c0-6.8,5.4-12.1,12.3-12.1
				c3.7,0,7.3,1.5,9.5,4.1l-2.4,2.4c-1.8-2.1-4.4-3.2-7.1-3.2c-5,0-8.7,3.8-8.7,8.9c0,5,3.8,8.9,8.8,8.9
				C372,236.1,374.6,234.9,376.3,232.9z"/>
			<path class="st2" d="M405.7,215.4h3.5v11l11.4-11h4.4l-12.1,11.4l12.5,12.2h-4.8l-11.4-11.2v11.2h-3.5V215.4z"/>
			<path class="st2" d="M469.6,232.9l2.3,2.4c-2.3,2.5-5.8,4.1-9.4,4.1c-7,0-12.3-5.3-12.3-12.1c0-6.8,5.4-12.1,12.3-12.1
				c3.7,0,7.3,1.5,9.5,4.1l-2.4,2.4c-1.8-2.1-4.4-3.2-7.1-3.2c-5,0-8.7,3.8-8.7,8.9c0,5,3.8,8.9,8.8,8.9
				C465.3,236.1,467.9,234.9,469.6,232.9z"/>
			<path class="st2" d="M499,215.4h3.5v10.1H515v-10.1h3.5v23.6H515v-10.3h-12.5v10.3H499V215.4z"/>
			<path class="st2" d="M554.4,215.4h4.1l9.6,23.6h-3.8l-2.7-6.9h-10.5l-2.8,6.9h-3.7L554.4,215.4z M560.4,229.1l-4.1-10.3
				l-4.1,10.3H560.4z"/>
			<path class="st2" d="M594.2,215.4h3.5v23.6h-3.5V215.4z"/>
			<path class="st2" d="M629.6,215.4l13.1,17.5v-17.5h3.3v23.6H643l-13.5-18v18h-3.3v-23.6H629.6z"/>
			<path class="st2" d="M733.9,215.4H754v3.1h-8.3v20.4h-3.5v-20.4h-8.3V215.4z"/>
			<path class="st2" d="M780.6,215.4h17.4v3.1h-13.8v7.1h9.1v3h-9.1v7.3h14v3.1h-17.5V215.4z"/>
			<path class="st2" d="M843.8,232.9l2.3,2.4c-2.3,2.5-5.8,4.1-9.4,4.1c-7,0-12.3-5.3-12.3-12.1c0-6.8,5.4-12.1,12.3-12.1
				c3.7,0,7.3,1.5,9.5,4.1l-2.4,2.4c-1.8-2.1-4.4-3.2-7.1-3.2c-5,0-8.7,3.8-8.7,8.9c0,5,3.8,8.9,8.8,8.9
				C839.5,236.1,842,234.9,843.8,232.9z"/>
			<path class="st2" d="M873.2,215.4h3.5v10.1h12.5v-10.1h3.5v23.6h-3.5v-10.3h-12.5v10.3h-3.5V215.4z"/>
		</g>
	</g>
	<g>
		<path class="st3" d="M594.2,281.6h7.4c7.1,0,11.9,4.1,11.9,10.2c0,7.1-6.9,12.9-15.3,12.9h-9.6L594.2,281.6z M596.5,283.9
			l-4.5,18.5h6.6c6.7,0,12-4.7,12-10.5c0-4.8-3.7-8-9.1-8H596.5z"/>
		<path class="st3" d="M621.1,304.7h-2.7l4-16.5h2.7L621.1,304.7z M623,283.5c0-1,1-1.8,2.1-1.8c0.9,0,1.7,0.6,1.7,1.5
			c0,1-1,1.8-2.1,1.8C623.7,285,623,284.3,623,283.5z"/>
		<path class="st3" d="M630.5,300.4c1.7,1.7,3.9,2.6,6.2,2.6c2.8,0,4.8-1.3,4.8-3c0-1.2-0.9-1.9-3-2.3l-3.1-0.6
			c-3.2-0.6-4.6-1.9-4.6-4.2c0-3,2.7-5,6.9-5c2.8,0,5.3,0.9,7.5,2.6l-1.6,1.6c-1.8-1.5-4-2.2-6-2.2c-2.5,0-4.2,1.2-4.2,2.8
			c0,1.2,0.8,1.9,3,2.3l3.1,0.6c3.3,0.7,4.8,2,4.8,4.2c0,3-3.2,5.2-7.5,5.2c-3.1,0-6.2-1.2-7.9-3.1L630.5,300.4z"/>
		<path class="st3" d="M653.7,288.1h2.7l-0.5,2.1c1.4-1.6,3.3-2.4,5.4-2.4c0.7,0,1.5,0.1,2,0.3l-0.5,2.2c-0.5-0.2-1.4-0.4-2.1-0.4
			c-2.1,0-4,1.1-5.4,3.2l-2.8,11.6h-2.7L653.7,288.1z"/>
		<path class="st3" d="M670.3,297.8c-0.8,3,0.9,5,4.2,5c2.1,0,4-0.8,5.4-2.4l3-12.3h2.7l-4,16.5h-2.7l0.4-1.7
			c-1.7,1.3-3.6,1.9-5.7,1.9c-4.5,0-7-2.9-6.1-6.9l2.4-9.9h2.7L670.3,297.8z"/>
		<path class="st3" d="M694,288.1h2.7l-0.3,1.2c1.6-0.9,3.3-1.4,5.2-1.4c4.8,0,8.3,3.2,8.3,7.6c0,5.2-4.6,9.5-10.3,9.5
			c-2.5,0-4.8-0.9-6.3-2.4l-2.1,8.9h-2.7L694,288.1z M695.9,291.8l-2,8.3c1,1.6,3.2,2.7,5.7,2.7c4.3,0,7.7-3.2,7.7-7.1
			c0-3.3-2.6-5.6-6.2-5.6C699.1,290.1,697.3,290.7,695.9,291.8z"/>
		<path class="st3" d="M721.2,290.2h-4l0.5-2.1h3.9l1-4.2l2.9-0.6l-1.2,4.8h5.5l-0.5,2.1h-5.5l-2.4,10c-0.5,1.9,0.3,2.6,2.8,2.6
			c0.7,0,1.3-0.1,2.2-0.3l-0.5,2.1c-0.8,0.2-1.8,0.3-2.7,0.3c-3.5,0-5.2-1.5-4.5-4.2L721.2,290.2z"/>
		<path class="st3" d="M748.4,288.1h2.7l-0.5,2.1c1.4-1.6,3.3-2.4,5.4-2.4c0.7,0,1.5,0.1,2,0.3l-0.5,2.2c-0.5-0.2-1.4-0.4-2.1-0.4
			c-2.1,0-4,1.1-5.4,3.2l-2.8,11.6h-2.7L748.4,288.1z"/>
		<path class="st3" d="M771,305c-5.3,0-9.1-3.2-9.1-7.8c0-5.1,4.5-9.3,9.9-9.3c4.6,0,8,3.3,8,7.8c0,0.5,0,0.8-0.1,1.5h-15.1
			c0.1,3.3,2.8,5.7,6.5,5.7c1.8,0,3.7-0.5,5.1-1.4l1.4,1.7C775.5,304.4,773.4,305,771,305z M764.9,295.2h12.3
			c-0.2-3-2.5-5.2-5.7-5.2C768.3,290,765.6,292.2,764.9,295.2z"/>
		<path class="st3" d="M785.5,300.3c0-3.2,3-5.4,7.6-5.4c2.2,0,4.3,0.5,6,1.4l0.5-1.9c0.7-3-0.8-4.5-4.5-4.5c-1.6,0-3.3,0.4-5.6,1.3
			l-0.7-1.9c2.6-1,4.8-1.4,6.8-1.4c5.1,0,7.6,2.4,6.7,6.4l-2.5,10.5h-2.7l0.3-1.4c-1.7,1.1-3.5,1.6-5.5,1.6
			C788.1,304.9,785.5,303.1,785.5,300.3z M792.6,303c2,0,3.7-0.5,5.3-1.7l0.8-3.1c-1.5-1.1-3.3-1.6-5.6-1.6c-2.9,0-5,1.4-5,3.4
			C788.1,301.9,789.8,303,792.6,303z"/>
		<path class="st3" d="M810.7,304.7H808l5.6-23.1l2.8-0.6L810.7,304.7z"/>
		<path class="st3" d="M821.9,304.7h-2.7l4-16.5h2.7L821.9,304.7z M823.8,283.5c0-1,1-1.8,2.1-1.8c0.9,0,1.7,0.6,1.7,1.5
			c0,1-1,1.8-2.1,1.8C824.5,285,823.8,284.3,823.8,283.5z"/>
		<path class="st3" d="M836.1,290.2h-4l0.5-2.1h3.9l1-4.2l2.9-0.6l-1.2,4.8h5.5l-0.5,2.1h-5.5l-2.4,10c-0.5,1.9,0.3,2.6,2.8,2.6
			c0.7,0,1.3-0.1,2.2-0.3l-0.5,2.1c-0.8,0.2-1.8,0.3-2.7,0.3c-3.5,0-5.2-1.5-4.5-4.2L836.1,290.2z"/>
		<path class="st3" d="M852.9,304.6l-3.6-16.5h2.9l2.8,13.7l9.7-13.7h3l-13.8,19.2c-2.1,2.9-4.1,4.2-6.9,4.2c-0.7,0-1.4-0.1-2.1-0.3
			l0.5-2.2c0.4,0.1,1,0.2,1.6,0.2c1.6,0,3-0.8,4.1-2.4L852.9,304.6z"/>
		<path class="st3" d="M869.7,303.4c0-1,1-1.9,2.1-1.9c0.9,0,1.6,0.7,1.6,1.5c0,1-1,1.8-2.1,1.8
			C870.4,304.9,869.7,304.2,869.7,303.4z M875.6,281h2.8l-4.5,17.3h-2.2L875.6,281z"/>
	</g>
	<g>
		<g>
			<path class="st3" d="M110.8,211.3l-69.5-69.5l69.5-69.5l69.5,69.5L110.8,211.3z M50.4,141.8l60.4,60.4l60.4-60.4l-60.4-60.4
				L50.4,141.8z"/>
		</g>
		<g>
			<path class="st3" d="M110.7,234.8l-69.1-69.1l69.1-69.1l69.1,69.1L110.7,234.8z M50.7,165.7l60,60l60-60l-60-60L50.7,165.7z"/>
		</g>
		<g>
			<path class="st3" d="M110.7,256l-66.6-66.6l66.6-66.6l66.6,66.6L110.7,256z M53.2,189.4l57.5,57.5l57.5-57.5l-57.5-57.5
				L53.2,189.4z"/>
		</g>
	</g>
	<path class="st2" d="M772.2,223.9"/>
</g>
</svg>
